<svg viewBox="0 0 200 200" xmlns="http://www.w3.org/2000/svg">
<path d="M93.2191 21.3465C79.4906 21.3618 66.3287 26.8221 56.6212 36.5297C46.9137 46.2372 41.4533 59.399 41.4381 73.1275C41.4381 81.539 43.6359 89.3637 47.2146 96.3944L18.3093 161.305C16.7899 164.704 16.5853 168.546 17.7353 172.087C18.8852 175.628 21.3079 178.617 24.5345 180.475L31.4962 184.491C34.5406 186.253 38.1062 186.892 41.5729 186.297C45.0397 185.702 48.1882 183.911 50.471 181.235L99.0761 124.333C124.84 121.364 145 99.6739 145 73.1275C145 44.5789 121.768 21.3465 93.2191 21.3465ZM41.7028 173.755C41.1654 174.385 40.4241 174.806 39.6081 174.944C38.7922 175.083 37.9534 174.931 37.2381 174.515L30.2764 170.499C29.5158 170.06 28.9446 169.355 28.6726 168.52C28.4007 167.685 28.4473 166.779 28.8036 165.976L54.8091 107.545C62.4831 116.162 72.8283 121.952 84.1862 123.988L41.7028 173.755ZM93.2191 113.402C71.0108 113.402 52.945 95.3358 52.945 73.1275C52.945 50.9192 71.0108 32.8534 93.2191 32.8534C115.427 32.8534 133.493 50.9192 133.493 73.1275C133.493 95.3358 115.416 113.402 93.2191 113.402Z" />
<path d="M161.5 13L167.307 28.6931L183 34.5L167.307 40.307L161.5 56L155.693 40.307L140 34.5L155.693 28.6931L161.5 13Z" />
</svg>
